solid OpenSCAD_Model
  facet normal 0 1 0
    outer loop
      vertex 15 15 30
      vertex 12 15 27
      vertex -15 15 30
    endloop
  endfacet
  facet normal 0 1 0
    outer loop
      vertex 15 15 30
      vertex 12 15 3
      vertex 12 15 27
    endloop
  endfacet
  facet normal 0 1 0
    outer loop
      vertex 12 15 3
      vertex 15 15 0
      vertex -12 15 3
    endloop
  endfacet
  facet normal 0 1 -0
    outer loop
      vertex 15 15 0
      vertex 12 15 3
      vertex 15 15 30
    endloop
  endfacet
  facet normal 0 1 -0
    outer loop
      vertex -12 15 27
      vertex -15 15 30
      vertex 12 15 27
    endloop
  endfacet
  facet normal 0 1 -0
    outer loop
      vertex -12 15 3
      vertex -15 15 30
      vertex -12 15 27
    endloop
  endfacet
  facet normal 0 1 0
    outer loop
      vertex -12 15 3
      vertex -15 15 0
      vertex -15 15 30
    endloop
  endfacet
  facet normal 0 1 0
    outer loop
      vertex -15 15 0
      vertex -12 15 3
      vertex 15 15 0
    endloop
  endfacet
  facet normal 1 -0 0
    outer loop
      vertex -12 -12 3
      vertex -12 12 0
      vertex -12 12 3
    endloop
  endfacet
  facet normal 1 0 0
    outer loop
      vertex -12 12 0
      vertex -12 -12 3
      vertex -12 -12 0
    endloop
  endfacet
  facet normal 1 -0 0
    outer loop
      vertex -12 -12 30
      vertex -12 12 27
      vertex -12 12 30
    endloop
  endfacet
  facet normal 1 0 0
    outer loop
      vertex -12 12 27
      vertex -12 -12 30
      vertex -12 -12 27
    endloop
  endfacet
  facet normal 1 -0 0
    outer loop
      vertex -12 12 27
      vertex -12 15 3
      vertex -12 15 27
    endloop
  endfacet
  facet normal 1 0 0
    outer loop
      vertex -12 15 3
      vertex -12 12 27
      vertex -12 12 3
    endloop
  endfacet
  facet normal -1 0 0
    outer loop
      vertex -15 15 0
      vertex -15 12 3
      vertex -15 15 30
    endloop
  endfacet
  facet normal -1 0 0
    outer loop
      vertex -15 15 0
      vertex -15 -12 3
      vertex -15 12 3
    endloop
  endfacet
  facet normal -1 -0 0
    outer loop
      vertex -15 -12 3
      vertex -15 -15 0
      vertex -15 -12 27
    endloop
  endfacet
  facet normal -1 0 0
    outer loop
      vertex -15 -15 0
      vertex -15 -12 3
      vertex -15 15 0
    endloop
  endfacet
  facet normal -1 0 0
    outer loop
      vertex -15 12 27
      vertex -15 15 30
      vertex -15 12 3
    endloop
  endfacet
  facet normal -1 0 0
    outer loop
      vertex -15 -12 27
      vertex -15 15 30
      vertex -15 12 27
    endloop
  endfacet
  facet normal -1 0 0
    outer loop
      vertex -15 -12 27
      vertex -15 -15 30
      vertex -15 15 30
    endloop
  endfacet
  facet normal -1 0 0
    outer loop
      vertex -15 -15 30
      vertex -15 -12 27
      vertex -15 -15 0
    endloop
  endfacet
  facet normal 0 -1 0
    outer loop
      vertex -15 -15 30
      vertex -12 -15 27
      vertex 15 -15 30
    endloop
  endfacet
  facet normal 0 -1 0
    outer loop
      vertex -15 -15 30
      vertex -12 -15 3
      vertex -12 -15 27
    endloop
  endfacet
  facet normal 0 -1 -0
    outer loop
      vertex -12 -15 3
      vertex -15 -15 0
      vertex 12 -15 3
    endloop
  endfacet
  facet normal 0 -1 0
    outer loop
      vertex -15 -15 0
      vertex -12 -15 3
      vertex -15 -15 30
    endloop
  endfacet
  facet normal 0 -1 0
    outer loop
      vertex 12 -15 27
      vertex 15 -15 30
      vertex -12 -15 27
    endloop
  endfacet
  facet normal 0 -1 0
    outer loop
      vertex 12 -15 3
      vertex 15 -15 30
      vertex 12 -15 27
    endloop
  endfacet
  facet normal 0 -1 0
    outer loop
      vertex 12 -15 3
      vertex 15 -15 0
      vertex 15 -15 30
    endloop
  endfacet
  facet normal 0 -1 0
    outer loop
      vertex 15 -15 0
      vertex 12 -15 3
      vertex -15 -15 0
    endloop
  endfacet
  facet normal 0 0 -1
    outer loop
      vertex 15 -15 0
      vertex 12 -12 0
      vertex 15 15 0
    endloop
  endfacet
  facet normal 0 0 -1
    outer loop
      vertex 15 -15 0
      vertex -12 -12 0
      vertex 12 -12 0
    endloop
  endfacet
  facet normal -0 0 -1
    outer loop
      vertex -12 -12 0
      vertex -15 -15 0
      vertex -12 12 0
    endloop
  endfacet
  facet normal 0 0 -1
    outer loop
      vertex -15 -15 0
      vertex -12 -12 0
      vertex 15 -15 0
    endloop
  endfacet
  facet normal 0 0 -1
    outer loop
      vertex 12 12 0
      vertex 15 15 0
      vertex 12 -12 0
    endloop
  endfacet
  facet normal 0 0 -1
    outer loop
      vertex -12 12 0
      vertex 15 15 0
      vertex 12 12 0
    endloop
  endfacet
  facet normal 0 0 -1
    outer loop
      vertex -12 12 0
      vertex -15 15 0
      vertex 15 15 0
    endloop
  endfacet
  facet normal 0 0 -1
    outer loop
      vertex -15 15 0
      vertex -12 12 0
      vertex -15 -15 0
    endloop
  endfacet
  facet normal -0 0 1
    outer loop
      vertex -15 12 3
      vertex -12 -12 3
      vertex -12 12 3
    endloop
  endfacet
  facet normal 0 0 1
    outer loop
      vertex -12 -12 3
      vertex -15 12 3
      vertex -15 -12 3
    endloop
  endfacet
  facet normal -0 0 1
    outer loop
      vertex 12 12 3
      vertex 15 -12 3
      vertex 15 12 3
    endloop
  endfacet
  facet normal 0 0 1
    outer loop
      vertex 15 -12 3
      vertex 12 12 3
      vertex 12 -12 3
    endloop
  endfacet
  facet normal -0 0 1
    outer loop
      vertex -12 -12 3
      vertex 12 -15 3
      vertex 12 -12 3
    endloop
  endfacet
  facet normal 0 0 1
    outer loop
      vertex 12 -15 3
      vertex -12 -12 3
      vertex -12 -15 3
    endloop
  endfacet
  facet normal 0 1 -0
    outer loop
      vertex 12 -12 0
      vertex -12 -12 3
      vertex 12 -12 3
    endloop
  endfacet
  facet normal 0 1 0
    outer loop
      vertex -12 -12 3
      vertex 12 -12 0
      vertex -12 -12 0
    endloop
  endfacet
  facet normal 1 0 0
    outer loop
      vertex 15 15 30
      vertex 15 12 27
      vertex 15 15 0
    endloop
  endfacet
  facet normal 1 0 0
    outer loop
      vertex 15 15 30
      vertex 15 -12 27
      vertex 15 12 27
    endloop
  endfacet
  facet normal 1 0 0
    outer loop
      vertex 15 -12 27
      vertex 15 -15 30
      vertex 15 -12 3
    endloop
  endfacet
  facet normal 1 -0 0
    outer loop
      vertex 15 -15 30
      vertex 15 -12 27
      vertex 15 15 30
    endloop
  endfacet
  facet normal 1 -0 0
    outer loop
      vertex 15 12 3
      vertex 15 15 0
      vertex 15 12 27
    endloop
  endfacet
  facet normal 1 -0 0
    outer loop
      vertex 15 -12 3
      vertex 15 15 0
      vertex 15 12 3
    endloop
  endfacet
  facet normal 1 0 0
    outer loop
      vertex 15 -12 3
      vertex 15 -15 0
      vertex 15 15 0
    endloop
  endfacet
  facet normal 1 0 0
    outer loop
      vertex 15 -15 0
      vertex 15 -12 3
      vertex 15 -15 30
    endloop
  endfacet
  facet normal -1 0 0
    outer loop
      vertex 12 -12 0
      vertex 12 12 3
      vertex 12 12 0
    endloop
  endfacet
  facet normal -1 -0 0
    outer loop
      vertex 12 12 3
      vertex 12 -12 0
      vertex 12 -12 3
    endloop
  endfacet
  facet normal 0 0 1
    outer loop
      vertex 15 15 30
      vertex 12 12 30
      vertex 15 -15 30
    endloop
  endfacet
  facet normal 0 0 1
    outer loop
      vertex 15 15 30
      vertex -12 12 30
      vertex 12 12 30
    endloop
  endfacet
  facet normal 0 0 1
    outer loop
      vertex -12 12 30
      vertex -15 15 30
      vertex -12 -12 30
    endloop
  endfacet
  facet normal -0 0 1
    outer loop
      vertex -15 15 30
      vertex -12 12 30
      vertex 15 15 30
    endloop
  endfacet
  facet normal -0 0 1
    outer loop
      vertex 12 -12 30
      vertex 15 -15 30
      vertex 12 12 30
    endloop
  endfacet
  facet normal -0 0 1
    outer loop
      vertex -12 -12 30
      vertex 15 -15 30
      vertex 12 -12 30
    endloop
  endfacet
  facet normal 0 0 1
    outer loop
      vertex -12 -12 30
      vertex -15 -15 30
      vertex 15 -15 30
    endloop
  endfacet
  facet normal 0 0 1
    outer loop
      vertex -15 -15 30
      vertex -12 -12 30
      vertex -15 15 30
    endloop
  endfacet
  facet normal 0 -1 0
    outer loop
      vertex -15 12 3
      vertex -12 12 27
      vertex -15 12 27
    endloop
  endfacet
  facet normal 0 -1 -0
    outer loop
      vertex -12 12 27
      vertex -15 12 3
      vertex -12 12 3
    endloop
  endfacet
  facet normal 0 0 -1
    outer loop
      vertex -15 -12 27
      vertex -12 12 27
      vertex -12 -12 27
    endloop
  endfacet
  facet normal -0 0 -1
    outer loop
      vertex -12 12 27
      vertex -15 -12 27
      vertex -15 12 27
    endloop
  endfacet
  facet normal 0 1 -0
    outer loop
      vertex 12 -12 27
      vertex -12 -12 30
      vertex 12 -12 30
    endloop
  endfacet
  facet normal 0 1 0
    outer loop
      vertex -12 -12 30
      vertex 12 -12 27
      vertex -12 -12 27
    endloop
  endfacet
  facet normal 0 1 -0
    outer loop
      vertex -12 -12 3
      vertex -15 -12 27
      vertex -12 -12 27
    endloop
  endfacet
  facet normal 0 1 0
    outer loop
      vertex -15 -12 27
      vertex -12 -12 3
      vertex -15 -12 3
    endloop
  endfacet
  facet normal 1 -0 0
    outer loop
      vertex -12 -15 27
      vertex -12 -12 3
      vertex -12 -12 27
    endloop
  endfacet
  facet normal 1 0 0
    outer loop
      vertex -12 -12 3
      vertex -12 -15 27
      vertex -12 -15 3
    endloop
  endfacet
  facet normal 0 0 -1
    outer loop
      vertex -12 -15 27
      vertex 12 -12 27
      vertex 12 -15 27
    endloop
  endfacet
  facet normal -0 0 -1
    outer loop
      vertex 12 -12 27
      vertex -12 -15 27
      vertex -12 -12 27
    endloop
  endfacet
  facet normal 0 1 -0
    outer loop
      vertex 15 -12 3
      vertex 12 -12 27
      vertex 15 -12 27
    endloop
  endfacet
  facet normal 0 1 0
    outer loop
      vertex 12 -12 27
      vertex 15 -12 3
      vertex 12 -12 3
    endloop
  endfacet
  facet normal -1 0 0
    outer loop
      vertex 12 -12 27
      vertex 12 12 30
      vertex 12 12 27
    endloop
  endfacet
  facet normal -1 -0 0
    outer loop
      vertex 12 12 30
      vertex 12 -12 27
      vertex 12 -12 30
    endloop
  endfacet
  facet normal -1 0 0
    outer loop
      vertex 12 -15 3
      vertex 12 -12 27
      vertex 12 -12 3
    endloop
  endfacet
  facet normal -1 -0 0
    outer loop
      vertex 12 -12 27
      vertex 12 -15 3
      vertex 12 -15 27
    endloop
  endfacet
  facet normal 0 0 -1
    outer loop
      vertex 12 -12 27
      vertex 15 12 27
      vertex 15 -12 27
    endloop
  endfacet
  facet normal -0 0 -1
    outer loop
      vertex 15 12 27
      vertex 12 -12 27
      vertex 12 12 27
    endloop
  endfacet
  facet normal 0 -1 0
    outer loop
      vertex 12 12 3
      vertex 15 12 27
      vertex 12 12 27
    endloop
  endfacet
  facet normal 0 -1 -0
    outer loop
      vertex 15 12 27
      vertex 12 12 3
      vertex 15 12 3
    endloop
  endfacet
  facet normal 0 -1 0
    outer loop
      vertex -12 12 0
      vertex 12 12 3
      vertex -12 12 3
    endloop
  endfacet
  facet normal 0 -1 -0
    outer loop
      vertex 12 12 3
      vertex -12 12 0
      vertex 12 12 0
    endloop
  endfacet
  facet normal 0 -1 0
    outer loop
      vertex -12 12 27
      vertex 12 12 30
      vertex -12 12 30
    endloop
  endfacet
  facet normal 0 -1 -0
    outer loop
      vertex 12 12 30
      vertex -12 12 27
      vertex 12 12 27
    endloop
  endfacet
  facet normal -1 0 0
    outer loop
      vertex 12 12 3
      vertex 12 15 27
      vertex 12 15 3
    endloop
  endfacet
  facet normal -1 -0 0
    outer loop
      vertex 12 15 27
      vertex 12 12 3
      vertex 12 12 27
    endloop
  endfacet
  facet normal -0 0 1
    outer loop
      vertex -12 15 3
      vertex 12 12 3
      vertex 12 15 3
    endloop
  endfacet
  facet normal 0 0 1
    outer loop
      vertex 12 12 3
      vertex -12 15 3
      vertex -12 12 3
    endloop
  endfacet
  facet normal 0 0 -1
    outer loop
      vertex -12 12 27
      vertex 12 15 27
      vertex 12 12 27
    endloop
  endfacet
  facet normal -0 0 -1
    outer loop
      vertex 12 15 27
      vertex -12 12 27
      vertex -12 15 27
    endloop
  endfacet
endsolid OpenSCAD_Model
