solid OpenSCAD_Model
  facet normal -0.57735 0.57735 -0.57735
    outer loop
      vertex -13.5 13.5 12
      vertex 0 15 0
      vertex -3 13.5 1.5
    endloop
  endfacet
  facet normal -0.57735 0.57735 -0.57735
    outer loop
      vertex 0 15 0
      vertex -13.5 3 1.5
      vertex -3 13.5 1.5
    endloop
  endfacet
  facet normal -0.57735 0.57735 -0.57735
    outer loop
      vertex -13.5 3 1.5
      vertex 0 15 0
      vertex -15 0 0
    endloop
  endfacet
  facet normal -0.57735 0.57735 -0.57735
    outer loop
      vertex 0 15 0
      vertex -13.5 13.5 12
      vertex -15 15 15
    endloop
  endfacet
  facet normal -0.57735 0.57735 -0.57735
    outer loop
      vertex -13.5 3 1.5
      vertex -15 15 15
      vertex -13.5 13.5 12
    endloop
  endfacet
  facet normal -0.57735 0.57735 -0.57735
    outer loop
      vertex -15 15 15
      vertex -13.5 3 1.5
      vertex -15 0 0
    endloop
  endfacet
  facet normal 0 -1 0
    outer loop
      vertex -15 -15 15
      vertex 0 -15 27
      vertex 0 -15 30
    endloop
  endfacet
  facet normal 0 -1 0
    outer loop
      vertex -15 -15 15
      vertex -12 -15 15
      vertex 0 -15 27
    endloop
  endfacet
  facet normal 0 -1 0
    outer loop
      vertex -15 -15 15
      vertex 0 -15 3
      vertex -12 -15 15
    endloop
  endfacet
  facet normal -0 -1 -0
    outer loop
      vertex 0 -15 3
      vertex -15 -15 15
      vertex 0 -15 0
    endloop
  endfacet
  facet normal 0 -1 0
    outer loop
      vertex 12 -15 15
      vertex 0 -15 30
      vertex 0 -15 27
    endloop
  endfacet
  facet normal 0 -1 0
    outer loop
      vertex 12 -15 15
      vertex 15 -15 15
      vertex 0 -15 30
    endloop
  endfacet
  facet normal 0 -1 0
    outer loop
      vertex 0 -15 3
      vertex 15 -15 15
      vertex 12 -15 15
    endloop
  endfacet
  facet normal 0 -1 0
    outer loop
      vertex 15 -15 15
      vertex 0 -15 3
      vertex 0 -15 0
    endloop
  endfacet
  facet normal -0.57735 -0.57735 -0.57735
    outer loop
      vertex 0 -15 0
      vertex -13.5 -3 1.5
      vertex -15 0 0
    endloop
  endfacet
  facet normal -0.57735 -0.57735 -0.57735
    outer loop
      vertex -3 -13.5 1.5
      vertex 0 -15 0
      vertex -13.5 -13.5 12
    endloop
  endfacet
  facet normal -0.57735 -0.57735 -0.57735
    outer loop
      vertex -13.5 -3 1.5
      vertex 0 -15 0
      vertex -3 -13.5 1.5
    endloop
  endfacet
  facet normal -0.57735 -0.57735 -0.57735
    outer loop
      vertex -13.5 -13.5 12
      vertex -15 0 0
      vertex -13.5 -3 1.5
    endloop
  endfacet
  facet normal -0.57735 -0.57735 -0.57735
    outer loop
      vertex -13.5 -13.5 12
      vertex -15 -15 15
      vertex -15 0 0
    endloop
  endfacet
  facet normal -0.57735 -0.57735 -0.57735
    outer loop
      vertex -15 -15 15
      vertex -13.5 -13.5 12
      vertex 0 -15 0
    endloop
  endfacet
  facet normal 0 0 -1
    outer loop
      vertex 0 -15 0
      vertex 12 0 0
      vertex 15 0 0
    endloop
  endfacet
  facet normal 0 0 -1
    outer loop
      vertex 0 -15 0
      vertex 0 -12 0
      vertex 12 0 0
    endloop
  endfacet
  facet normal 0 0 -1
    outer loop
      vertex 0 -15 0
      vertex -12 0 0
      vertex 0 -12 0
    endloop
  endfacet
  facet normal -0 -0 -1
    outer loop
      vertex -12 0 0
      vertex 0 -15 0
      vertex -15 0 0
    endloop
  endfacet
  facet normal 0 0 -1
    outer loop
      vertex 0 12 0
      vertex 15 0 0
      vertex 12 0 0
    endloop
  endfacet
  facet normal 0 0 -1
    outer loop
      vertex 0 12 0
      vertex 0 15 0
      vertex 15 0 0
    endloop
  endfacet
  facet normal 0 0 -1
    outer loop
      vertex -12 0 0
      vertex 0 15 0
      vertex 0 12 0
    endloop
  endfacet
  facet normal 0 0 -1
    outer loop
      vertex 0 15 0
      vertex -12 0 0
      vertex -15 0 0
    endloop
  endfacet
  facet normal 0.57735 0.57735 0.57735
    outer loop
      vertex -12 0 3
      vertex 0 -10.5 1.5
      vertex -10.5 0 1.5
    endloop
  endfacet
  facet normal 0.57735 0.57735 0.57735
    outer loop
      vertex 0 -10.5 1.5
      vertex -12 0 3
      vertex 0 -12 3
    endloop
  endfacet
  facet normal -1 0 0
    outer loop
      vertex -15 0 0
      vertex -15 12 15
      vertex -15 15 15
    endloop
  endfacet
  facet normal -1 0 0
    outer loop
      vertex -15 0 0
      vertex -15 0 3
      vertex -15 12 15
    endloop
  endfacet
  facet normal -1 0 0
    outer loop
      vertex -15 0 0
      vertex -15 -12 15
      vertex -15 0 3
    endloop
  endfacet
  facet normal -1 -0 -0
    outer loop
      vertex -15 -12 15
      vertex -15 0 0
      vertex -15 -15 15
    endloop
  endfacet
  facet normal -1 0 0
    outer loop
      vertex -15 0 27
      vertex -15 15 15
      vertex -15 12 15
    endloop
  endfacet
  facet normal -1 0 0
    outer loop
      vertex -15 0 27
      vertex -15 0 30
      vertex -15 15 15
    endloop
  endfacet
  facet normal -1 0 0
    outer loop
      vertex -15 -12 15
      vertex -15 0 30
      vertex -15 0 27
    endloop
  endfacet
  facet normal -1 0 0
    outer loop
      vertex -15 0 30
      vertex -15 -12 15
      vertex -15 -15 15
    endloop
  endfacet
  facet normal 0.57735 -0.57735 0.57735
    outer loop
      vertex -12 -15 15
      vertex 0 -13.5 4.5
      vertex -10.5 -13.5 15
    endloop
  endfacet
  facet normal 0.57735 -0.57735 0.57735
    outer loop
      vertex 0 -13.5 4.5
      vertex -12 -15 15
      vertex 0 -15 3
    endloop
  endfacet
  facet normal 0.57735 -0.57735 0.57735
    outer loop
      vertex 3 -12 3
      vertex 13.5 -3 1.5
      vertex 12 -3 3
    endloop
  endfacet
  facet normal 0.57735 -0.57735 0.57735
    outer loop
      vertex 13.5 -3 1.5
      vertex 3 -12 3
      vertex 3 -13.5 1.5
    endloop
  endfacet
  facet normal -0.57735 -0.57735 0.57735
    outer loop
      vertex -15 0 3
      vertex -13.5 10.5 15
      vertex -15 12 15
    endloop
  endfacet
  facet normal -0.57735 -0.57735 0.57735
    outer loop
      vertex -13.5 10.5 15
      vertex -15 0 3
      vertex -13.5 0 4.5
    endloop
  endfacet
  facet normal -0.57735 -0.57735 0.57735
    outer loop
      vertex -13.5 -3 1.5
      vertex -3 -12 3
      vertex -12 -3 3
    endloop
  endfacet
  facet normal -0.57735 -0.57735 0.57735
    outer loop
      vertex -3 -12 3
      vertex -13.5 -3 1.5
      vertex -3 -13.5 1.5
    endloop
  endfacet
  facet normal 0.57735 -0.57735 -0.57735
    outer loop
      vertex 15 0 0
      vertex 13.5 -13.5 12
      vertex 13.5 -3 1.5
    endloop
  endfacet
  facet normal 0.57735 -0.57735 -0.57735
    outer loop
      vertex 0 -15 0
      vertex 13.5 -13.5 12
      vertex 15 -15 15
    endloop
  endfacet
  facet normal 0.57735 -0.57735 -0.57735
    outer loop
      vertex 15 -15 15
      vertex 13.5 -13.5 12
      vertex 15 0 0
    endloop
  endfacet
  facet normal 0.57735 -0.57735 -0.57735
    outer loop
      vertex 0 -15 0
      vertex 13.5 -3 1.5
      vertex 3 -13.5 1.5
    endloop
  endfacet
  facet normal 0.57735 -0.57735 -0.57735
    outer loop
      vertex 13.5 -3 1.5
      vertex 0 -15 0
      vertex 15 0 0
    endloop
  endfacet
  facet normal 0.57735 -0.57735 -0.57735
    outer loop
      vertex 13.5 -13.5 12
      vertex 0 -15 0
      vertex 3 -13.5 1.5
    endloop
  endfacet
  facet normal 0 0 1
    outer loop
      vertex -12 0 3
      vertex -3 -12 3
      vertex 0 -12 3
    endloop
  endfacet
  facet normal 0 0 1
    outer loop
      vertex -3 -12 3
      vertex -12 0 3
      vertex -12 -3 3
    endloop
  endfacet
  facet normal 0 0 1
    outer loop
      vertex 3 12 3
      vertex 12 0 3
      vertex 12 3 3
    endloop
  endfacet
  facet normal 0 0 1
    outer loop
      vertex 12 0 3
      vertex 3 12 3
      vertex 0 12 3
    endloop
  endfacet
  facet normal 0 0 1
    outer loop
      vertex 12 0 3
      vertex 3 -12 3
      vertex 12 -3 3
    endloop
  endfacet
  facet normal 0 -0 1
    outer loop
      vertex 3 -12 3
      vertex 12 0 3
      vertex 0 -12 3
    endloop
  endfacet
  facet normal 0.57735 0.57735 -0.57735
    outer loop
      vertex 0 -10.5 1.5
      vertex -12 0 0
      vertex -10.5 0 1.5
    endloop
  endfacet
  facet normal 0.57735 0.57735 -0.57735
    outer loop
      vertex -12 0 0
      vertex 0 -10.5 1.5
      vertex 0 -12 0
    endloop
  endfacet
  facet normal 0.57735 0.57735 -0.57735
    outer loop
      vertex -12 3 3
      vertex -13.5 13.5 12
      vertex -12 12 12
    endloop
  endfacet
  facet normal 0.57735 0.57735 -0.57735
    outer loop
      vertex -13.5 13.5 12
      vertex -12 3 3
      vertex -13.5 3 1.5
    endloop
  endfacet
  facet normal -0.57735 0.57735 0.57735
    outer loop
      vertex 0 -10.5 1.5
      vertex 12 0 3
      vertex 10.5 0 1.5
    endloop
  endfacet
  facet normal -0.57735 0.57735 0.57735
    outer loop
      vertex 12 0 3
      vertex 0 -10.5 1.5
      vertex 0 -12 3
    endloop
  endfacet
  facet normal -0.57735 0.57735 -0.57735
    outer loop
      vertex 12 0 0
      vertex 0 -10.5 1.5
      vertex 10.5 0 1.5
    endloop
  endfacet
  facet normal -0.57735 0.57735 -0.57735
    outer loop
      vertex 0 -10.5 1.5
      vertex 12 0 0
      vertex 0 -12 0
    endloop
  endfacet
  facet normal 0.57735 0.57735 0.57735
    outer loop
      vertex 13.5 -10.5 15
      vertex 15 0 3
      vertex 13.5 0 4.5
    endloop
  endfacet
  facet normal 0.57735 0.57735 0.57735
    outer loop
      vertex 15 0 3
      vertex 13.5 -10.5 15
      vertex 15 -12 15
    endloop
  endfacet
  facet normal 0.57735 0.57735 0.57735
    outer loop
      vertex -13.5 3 28.5
      vertex -12 12 18
      vertex -13.5 13.5 18
    endloop
  endfacet
  facet normal 0.57735 0.57735 0.57735
    outer loop
      vertex -12 12 18
      vertex -13.5 3 28.5
      vertex -12 3 27
    endloop
  endfacet
  facet normal 0.57735 0.57735 0.57735
    outer loop
      vertex 0 13.5 4.5
      vertex -12 15 15
      vertex -10.5 13.5 15
    endloop
  endfacet
  facet normal 0.57735 0.57735 0.57735
    outer loop
      vertex -12 15 15
      vertex 0 13.5 4.5
      vertex 0 15 3
    endloop
  endfacet
  facet normal 0.57735 0.57735 0.57735
    outer loop
      vertex 13.5 3 1.5
      vertex 3 12 3
      vertex 12 3 3
    endloop
  endfacet
  facet normal 0.57735 0.57735 0.57735
    outer loop
      vertex 3 12 3
      vertex 13.5 3 1.5
      vertex 3 13.5 1.5
    endloop
  endfacet
  facet normal 1 0 0
    outer loop
      vertex 15 0 30
      vertex 15 12 15
      vertex 15 15 15
    endloop
  endfacet
  facet normal 1 0 0
    outer loop
      vertex 15 0 30
      vertex 15 0 27
      vertex 15 12 15
    endloop
  endfacet
  facet normal 1 0 0
    outer loop
      vertex 15 0 30
      vertex 15 -12 15
      vertex 15 0 27
    endloop
  endfacet
  facet normal 1 0 -0
    outer loop
      vertex 15 -12 15
      vertex 15 0 30
      vertex 15 -15 15
    endloop
  endfacet
  facet normal 1 0 0
    outer loop
      vertex 15 0 3
      vertex 15 15 15
      vertex 15 12 15
    endloop
  endfacet
  facet normal 1 -0 0
    outer loop
      vertex 15 0 3
      vertex 15 0 0
      vertex 15 15 15
    endloop
  endfacet
  facet normal 1 0 0
    outer loop
      vertex 15 -12 15
      vertex 15 0 0
      vertex 15 0 3
    endloop
  endfacet
  facet normal 1 0 0
    outer loop
      vertex 15 0 0
      vertex 15 -12 15
      vertex 15 -15 15
    endloop
  endfacet
  facet normal 0.57735 0.57735 -0.57735
    outer loop
      vertex 15 15 15
      vertex 13.5 13.5 12
      vertex 0 15 0
    endloop
  endfacet
  facet normal 0.57735 0.57735 -0.57735
    outer loop
      vertex 15 15 15
      vertex 13.5 3 1.5
      vertex 13.5 13.5 12
    endloop
  endfacet
  facet normal 0.57735 0.57735 -0.57735
    outer loop
      vertex 13.5 3 1.5
      vertex 15 15 15
      vertex 15 0 0
    endloop
  endfacet
  facet normal 0.57735 0.57735 -0.57735
    outer loop
      vertex 3 13.5 1.5
      vertex 0 15 0
      vertex 13.5 13.5 12
    endloop
  endfacet
  facet normal 0.57735 0.57735 -0.57735
    outer loop
      vertex 13.5 3 1.5
      vertex 0 15 0
      vertex 3 13.5 1.5
    endloop
  endfacet
  facet normal 0.57735 0.57735 -0.57735
    outer loop
      vertex 0 15 0
      vertex 13.5 3 1.5
      vertex 15 0 0
    endloop
  endfacet
  facet normal -0.57735 -0.57735 -0.57735
    outer loop
      vertex 12 0 0
      vertex 0 10.5 1.5
      vertex 0 12 0
    endloop
  endfacet
  facet normal -0.57735 -0.57735 -0.57735
    outer loop
      vertex 0 10.5 1.5
      vertex 12 0 0
      vertex 10.5 0 1.5
    endloop
  endfacet
  facet normal 0 1 0
    outer loop
      vertex 15 15 15
      vertex 0 15 27
      vertex 0 15 30
    endloop
  endfacet
  facet normal 0 1 0
    outer loop
      vertex 15 15 15
      vertex 12 15 15
      vertex 0 15 27
    endloop
  endfacet
  facet normal 0 1 0
    outer loop
      vertex 15 15 15
      vertex 0 15 3
      vertex 12 15 15
    endloop
  endfacet
  facet normal -0 1 0
    outer loop
      vertex 0 15 3
      vertex 15 15 15
      vertex 0 15 0
    endloop
  endfacet
  facet normal 0 1 0
    outer loop
      vertex -12 15 15
      vertex 0 15 30
      vertex 0 15 27
    endloop
  endfacet
  facet normal 0 1 -0
    outer loop
      vertex -12 15 15
      vertex -15 15 15
      vertex 0 15 30
    endloop
  endfacet
  facet normal 0 1 0
    outer loop
      vertex 0 15 3
      vertex -15 15 15
      vertex -12 15 15
    endloop
  endfacet
  facet normal 0 1 0
    outer loop
      vertex -15 15 15
      vertex 0 15 3
      vertex 0 15 0
    endloop
  endfacet
  facet normal -0.57735 -0.57735 0.57735
    outer loop
      vertex 12 0 3
      vertex 0 10.5 1.5
      vertex 10.5 0 1.5
    endloop
  endfacet
  facet normal -0.57735 -0.57735 0.57735
    outer loop
      vertex 0 10.5 1.5
      vertex 12 0 3
      vertex 0 12 3
    endloop
  endfacet
  facet normal 0 0 1
    outer loop
      vertex 0 15 30
      vertex 12 0 30
      vertex 15 0 30
    endloop
  endfacet
  facet normal 0 0 1
    outer loop
      vertex 0 15 30
      vertex 0 12 30
      vertex 12 0 30
    endloop
  endfacet
  facet normal 0 0 1
    outer loop
      vertex 0 15 30
      vertex -12 0 30
      vertex 0 12 30
    endloop
  endfacet
  facet normal 0 -0 1
    outer loop
      vertex -12 0 30
      vertex 0 15 30
      vertex -15 0 30
    endloop
  endfacet
  facet normal 0 0 1
    outer loop
      vertex 0 -12 30
      vertex 15 0 30
      vertex 12 0 30
    endloop
  endfacet
  facet normal -0 0 1
    outer loop
      vertex 0 -12 30
      vertex 0 -15 30
      vertex 15 0 30
    endloop
  endfacet
  facet normal 0 0 1
    outer loop
      vertex -12 0 30
      vertex 0 -15 30
      vertex 0 -12 30
    endloop
  endfacet
  facet normal 0 0 1
    outer loop
      vertex 0 -15 30
      vertex -12 0 30
      vertex -15 0 30
    endloop
  endfacet
  facet normal 1 0 0
    outer loop
      vertex -12 12 15
      vertex -12 3 3
      vertex -12 12 12
    endloop
  endfacet
  facet normal 1 0 -0
    outer loop
      vertex -12 3 3
      vertex -12 12 15
      vertex -12 0 3
    endloop
  endfacet
  facet normal 1 0 0
    outer loop
      vertex -12 -12 18
      vertex -12 0 27
      vertex -12 -3 27
    endloop
  endfacet
  facet normal 1 0 0
    outer loop
      vertex -12 0 27
      vertex -12 -12 18
      vertex -12 -12 15
    endloop
  endfacet
  facet normal 1 0 0
    outer loop
      vertex -12 3 27
      vertex -12 12 15
      vertex -12 12 18
    endloop
  endfacet
  facet normal 1 0 0
    outer loop
      vertex -12 12 15
      vertex -12 3 27
      vertex -12 0 27
    endloop
  endfacet
  facet normal 0.57735 -0.57735 0.57735
    outer loop
      vertex -13.5 -3 28.5
      vertex -12 -12 18
      vertex -12 -3 27
    endloop
  endfacet
  facet normal 0.57735 -0.57735 0.57735
    outer loop
      vertex -12 -12 18
      vertex -13.5 -3 28.5
      vertex -13.5 -13.5 18
    endloop
  endfacet
  facet normal 0.57735 -0.57735 0.57735
    outer loop
      vertex 3 12 27
      vertex 13.5 13.5 18
      vertex 3 13.5 28.5
    endloop
  endfacet
  facet normal 0.57735 -0.57735 0.57735
    outer loop
      vertex 13.5 13.5 18
      vertex 3 12 27
      vertex 12 12 18
    endloop
  endfacet
  facet normal 0.57735 -0.57735 0.57735
    outer loop
      vertex -12 0 30
      vertex 0 10.5 28.5
      vertex 0 12 30
    endloop
  endfacet
  facet normal 0.57735 -0.57735 0.57735
    outer loop
      vertex 0 10.5 28.5
      vertex -12 0 30
      vertex -10.5 0 28.5
    endloop
  endfacet
  facet normal -0.57735 -0.57735 -0.57735
    outer loop
      vertex -13.5 0 25.5
      vertex -15 12 15
      vertex -13.5 10.5 15
    endloop
  endfacet
  facet normal -0.57735 -0.57735 -0.57735
    outer loop
      vertex -15 12 15
      vertex -13.5 0 25.5
      vertex -15 0 27
    endloop
  endfacet
  facet normal -0.57735 -0.57735 0.57735
    outer loop
      vertex -15 0 30
      vertex -13.5 -13.5 18
      vertex -13.5 -3 28.5
    endloop
  endfacet
  facet normal -0.57735 -0.57735 0.57735
    outer loop
      vertex 0 -15 30
      vertex -13.5 -13.5 18
      vertex -15 -15 15
    endloop
  endfacet
  facet normal -0.57735 -0.57735 0.57735
    outer loop
      vertex -15 -15 15
      vertex -13.5 -13.5 18
      vertex -15 0 30
    endloop
  endfacet
  facet normal -0.57735 -0.57735 0.57735
    outer loop
      vertex 0 -15 30
      vertex -13.5 -3 28.5
      vertex -3 -13.5 28.5
    endloop
  endfacet
  facet normal -0.57735 -0.57735 0.57735
    outer loop
      vertex -13.5 -3 28.5
      vertex 0 -15 30
      vertex -15 0 30
    endloop
  endfacet
  facet normal -0.57735 -0.57735 0.57735
    outer loop
      vertex -13.5 -13.5 18
      vertex 0 -15 30
      vertex -3 -13.5 28.5
    endloop
  endfacet
  facet normal -0.57735 0.57735 0.57735
    outer loop
      vertex -15 15 15
      vertex -13.5 13.5 18
      vertex 0 15 30
    endloop
  endfacet
  facet normal -0.57735 0.57735 0.57735
    outer loop
      vertex -15 15 15
      vertex -13.5 3 28.5
      vertex -13.5 13.5 18
    endloop
  endfacet
  facet normal -0.57735 0.57735 0.57735
    outer loop
      vertex -13.5 3 28.5
      vertex -15 15 15
      vertex -15 0 30
    endloop
  endfacet
  facet normal -0.57735 0.57735 0.57735
    outer loop
      vertex -3 13.5 28.5
      vertex 0 15 30
      vertex -13.5 13.5 18
    endloop
  endfacet
  facet normal -0.57735 0.57735 0.57735
    outer loop
      vertex -13.5 3 28.5
      vertex 0 15 30
      vertex -3 13.5 28.5
    endloop
  endfacet
  facet normal -0.57735 0.57735 0.57735
    outer loop
      vertex 0 15 30
      vertex -13.5 3 28.5
      vertex -15 0 30
    endloop
  endfacet
  facet normal 0.57735 -0.57735 -0.57735
    outer loop
      vertex -12 0 27
      vertex -13.5 10.5 15
      vertex -12 12 15
    endloop
  endfacet
  facet normal 0.57735 -0.57735 -0.57735
    outer loop
      vertex -13.5 10.5 15
      vertex -12 0 27
      vertex -13.5 0 25.5
    endloop
  endfacet
  facet normal -0.57735 0.57735 -0.57735
    outer loop
      vertex -13.5 -10.5 15
      vertex -15 0 27
      vertex -13.5 0 25.5
    endloop
  endfacet
  facet normal -0.57735 0.57735 -0.57735
    outer loop
      vertex -15 0 27
      vertex -13.5 -10.5 15
      vertex -15 -12 15
    endloop
  endfacet
  facet normal -0.57735 0.57735 -0.57735
    outer loop
      vertex -13.5 -13.5 12
      vertex -3 -12 3
      vertex -3 -13.5 1.5
    endloop
  endfacet
  facet normal -0.57735 0.57735 -0.57735
    outer loop
      vertex -3 -12 3
      vertex -13.5 -13.5 12
      vertex -12 -12 12
    endloop
  endfacet
  facet normal 0.57735 0.57735 -0.57735
    outer loop
      vertex -12 0 27
      vertex -13.5 -10.5 15
      vertex -13.5 0 25.5
    endloop
  endfacet
  facet normal 0.57735 0.57735 -0.57735
    outer loop
      vertex -13.5 -10.5 15
      vertex -12 0 27
      vertex -12 -12 15
    endloop
  endfacet
  facet normal 0.57735 -0.57735 0.57735
    outer loop
      vertex -13.5 0 4.5
      vertex -12 12 15
      vertex -13.5 10.5 15
    endloop
  endfacet
  facet normal 0.57735 -0.57735 0.57735
    outer loop
      vertex -12 12 15
      vertex -13.5 0 4.5
      vertex -12 0 3
    endloop
  endfacet
  facet normal 0 1 0
    outer loop
      vertex 12 -12 18
      vertex 0 -12 27
      vertex 3 -12 27
    endloop
  endfacet
  facet normal 0 1 0
    outer loop
      vertex 0 -12 27
      vertex 12 -12 18
      vertex 12 -12 15
    endloop
  endfacet
  facet normal 0 1 0
    outer loop
      vertex 0 -12 27
      vertex -12 -12 18
      vertex -3 -12 27
    endloop
  endfacet
  facet normal -0 1 0
    outer loop
      vertex -12 -12 18
      vertex 0 -12 27
      vertex -12 -12 15
    endloop
  endfacet
  facet normal 0 1 0
    outer loop
      vertex 0 -12 3
      vertex -12 -12 12
      vertex -12 -12 15
    endloop
  endfacet
  facet normal 0 1 0
    outer loop
      vertex -12 -12 12
      vertex 0 -12 3
      vertex -3 -12 3
    endloop
  endfacet
  facet normal 0.57735 0.57735 -0.57735
    outer loop
      vertex 0 -13.5 25.5
      vertex -12 -12 15
      vertex 0 -12 27
    endloop
  endfacet
  facet normal 0.57735 0.57735 -0.57735
    outer loop
      vertex -12 -12 15
      vertex 0 -13.5 25.5
      vertex -10.5 -13.5 15
    endloop
  endfacet
  facet normal -0.57735 0.57735 0.57735
    outer loop
      vertex -13.5 -13.5 18
      vertex -3 -12 27
      vertex -12 -12 18
    endloop
  endfacet
  facet normal -0.57735 0.57735 0.57735
    outer loop
      vertex -3 -12 27
      vertex -13.5 -13.5 18
      vertex -3 -13.5 28.5
    endloop
  endfacet
  facet normal 0.57735 0.57735 0.57735
    outer loop
      vertex 13.5 -13.5 18
      vertex 3 -12 27
      vertex 3 -13.5 28.5
    endloop
  endfacet
  facet normal 0.57735 0.57735 0.57735
    outer loop
      vertex 3 -12 27
      vertex 13.5 -13.5 18
      vertex 12 -12 18
    endloop
  endfacet
  facet normal 0.57735 -0.57735 -0.57735
    outer loop
      vertex -12 -15 15
      vertex 0 -13.5 25.5
      vertex 0 -15 27
    endloop
  endfacet
  facet normal 0.57735 -0.57735 -0.57735
    outer loop
      vertex 0 -13.5 25.5
      vertex -12 -15 15
      vertex -10.5 -13.5 15
    endloop
  endfacet
  facet normal 0.57735 -0.57735 0.57735
    outer loop
      vertex 0 -15 30
      vertex 13.5 -3 28.5
      vertex 15 0 30
    endloop
  endfacet
  facet normal 0.57735 -0.57735 0.57735
    outer loop
      vertex 3 -13.5 28.5
      vertex 0 -15 30
      vertex 13.5 -13.5 18
    endloop
  endfacet
  facet normal 0.57735 -0.57735 0.57735
    outer loop
      vertex 13.5 -3 28.5
      vertex 0 -15 30
      vertex 3 -13.5 28.5
    endloop
  endfacet
  facet normal 0.57735 -0.57735 0.57735
    outer loop
      vertex 13.5 -13.5 18
      vertex 15 0 30
      vertex 13.5 -3 28.5
    endloop
  endfacet
  facet normal 0.57735 -0.57735 0.57735
    outer loop
      vertex 13.5 -13.5 18
      vertex 15 -15 15
      vertex 15 0 30
    endloop
  endfacet
  facet normal 0.57735 -0.57735 0.57735
    outer loop
      vertex 15 -15 15
      vertex 13.5 -13.5 18
      vertex 0 -15 30
    endloop
  endfacet
  facet normal -0.57735 -0.57735 -0.57735
    outer loop
      vertex 12 -15 15
      vertex 0 -13.5 25.5
      vertex 10.5 -13.5 15
    endloop
  endfacet
  facet normal -0.57735 -0.57735 -0.57735
    outer loop
      vertex 0 -13.5 25.5
      vertex 12 -15 15
      vertex 0 -15 27
    endloop
  endfacet
  facet normal -0.57735 -0.57735 -0.57735
    outer loop
      vertex 13.5 -3 1.5
      vertex 12 -12 12
      vertex 12 -3 3
    endloop
  endfacet
  facet normal -0.57735 -0.57735 -0.57735
    outer loop
      vertex 12 -12 12
      vertex 13.5 -3 1.5
      vertex 13.5 -13.5 12
    endloop
  endfacet
  facet normal -0.57735 0.57735 -0.57735
    outer loop
      vertex 0 -13.5 25.5
      vertex 12 -12 15
      vertex 10.5 -13.5 15
    endloop
  endfacet
  facet normal -0.57735 0.57735 -0.57735
    outer loop
      vertex 12 -12 15
      vertex 0 -13.5 25.5
      vertex 0 -12 27
    endloop
  endfacet
  facet normal 0.57735 0.57735 0.57735
    outer loop
      vertex 0 -13.5 4.5
      vertex -12 -12 15
      vertex -10.5 -13.5 15
    endloop
  endfacet
  facet normal 0.57735 0.57735 0.57735
    outer loop
      vertex -12 -12 15
      vertex 0 -13.5 4.5
      vertex 0 -12 3
    endloop
  endfacet
  facet normal -0.57735 0.57735 -0.57735
    outer loop
      vertex 13.5 -10.5 15
      vertex 12 0 27
      vertex 13.5 0 25.5
    endloop
  endfacet
  facet normal -0.57735 0.57735 -0.57735
    outer loop
      vertex 12 0 27
      vertex 13.5 -10.5 15
      vertex 12 -12 15
    endloop
  endfacet
  facet normal 0.57735 0.57735 -0.57735
    outer loop
      vertex 15 0 27
      vertex 13.5 -10.5 15
      vertex 13.5 0 25.5
    endloop
  endfacet
  facet normal 0.57735 0.57735 -0.57735
    outer loop
      vertex 13.5 -10.5 15
      vertex 15 0 27
      vertex 15 -12 15
    endloop
  endfacet
  facet normal -0.57735 0.57735 0.57735
    outer loop
      vertex 12 3 27
      vertex 13.5 13.5 18
      vertex 12 12 18
    endloop
  endfacet
  facet normal -0.57735 0.57735 0.57735
    outer loop
      vertex 13.5 13.5 18
      vertex 12 3 27
      vertex 13.5 3 28.5
    endloop
  endfacet
  facet normal -0.57735 -0.57735 0.57735
    outer loop
      vertex 12 -12 18
      vertex 13.5 -3 28.5
      vertex 12 -3 27
    endloop
  endfacet
  facet normal -0.57735 -0.57735 0.57735
    outer loop
      vertex 13.5 -3 28.5
      vertex 12 -12 18
      vertex 13.5 -13.5 18
    endloop
  endfacet
  facet normal -1 0 0
    outer loop
      vertex 12 12 15
      vertex 12 3 27
      vertex 12 12 18
    endloop
  endfacet
  facet normal -1 -0 -0
    outer loop
      vertex 12 3 27
      vertex 12 12 15
      vertex 12 0 27
    endloop
  endfacet
  facet normal -1 0 0
    outer loop
      vertex 12 -12 15
      vertex 12 -3 27
      vertex 12 0 27
    endloop
  endfacet
  facet normal -1 0 0
    outer loop
      vertex 12 -3 27
      vertex 12 -12 15
      vertex 12 -12 18
    endloop
  endfacet
  facet normal -1 0 0
    outer loop
      vertex 12 -12 12
      vertex 12 0 3
      vertex 12 -3 3
    endloop
  endfacet
  facet normal -1 0 0
    outer loop
      vertex 12 0 3
      vertex 12 -12 12
      vertex 12 -12 15
    endloop
  endfacet
  facet normal 0.57735 0.57735 0.57735
    outer loop
      vertex 13.5 13.5 18
      vertex 0 15 30
      vertex 3 13.5 28.5
    endloop
  endfacet
  facet normal 0.57735 0.57735 0.57735
    outer loop
      vertex 0 15 30
      vertex 13.5 3 28.5
      vertex 3 13.5 28.5
    endloop
  endfacet
  facet normal 0.57735 0.57735 0.57735
    outer loop
      vertex 13.5 3 28.5
      vertex 0 15 30
      vertex 15 0 30
    endloop
  endfacet
  facet normal 0.57735 0.57735 0.57735
    outer loop
      vertex 0 15 30
      vertex 13.5 13.5 18
      vertex 15 15 15
    endloop
  endfacet
  facet normal 0.57735 0.57735 0.57735
    outer loop
      vertex 13.5 3 28.5
      vertex 15 15 15
      vertex 13.5 13.5 18
    endloop
  endfacet
  facet normal 0.57735 0.57735 0.57735
    outer loop
      vertex 15 15 15
      vertex 13.5 3 28.5
      vertex 15 0 30
    endloop
  endfacet
  facet normal 0.57735 -0.57735 -0.57735
    outer loop
      vertex 15 0 27
      vertex 13.5 10.5 15
      vertex 15 12 15
    endloop
  endfacet
  facet normal 0.57735 -0.57735 -0.57735
    outer loop
      vertex 13.5 10.5 15
      vertex 15 0 27
      vertex 13.5 0 25.5
    endloop
  endfacet
  facet normal -0.57735 -0.57735 -0.57735
    outer loop
      vertex 13.5 0 25.5
      vertex 12 12 15
      vertex 13.5 10.5 15
    endloop
  endfacet
  facet normal -0.57735 -0.57735 -0.57735
    outer loop
      vertex 12 12 15
      vertex 13.5 0 25.5
      vertex 12 0 27
    endloop
  endfacet
  facet normal -0.57735 -0.57735 -0.57735
    outer loop
      vertex 12 12 15
      vertex 0 13.5 25.5
      vertex 10.5 13.5 15
    endloop
  endfacet
  facet normal -0.57735 -0.57735 -0.57735
    outer loop
      vertex 0 13.5 25.5
      vertex 12 12 15
      vertex 0 12 27
    endloop
  endfacet
  facet normal -0.57735 0.57735 -0.57735
    outer loop
      vertex -13.5 3 28.5
      vertex -3 12 27
      vertex -12 3 27
    endloop
  endfacet
  facet normal -0.57735 0.57735 -0.57735
    outer loop
      vertex -3 12 27
      vertex -13.5 3 28.5
      vertex -3 13.5 28.5
    endloop
  endfacet
  facet normal -0.57735 0.57735 -0.57735
    outer loop
      vertex 0 13.5 25.5
      vertex 12 15 15
      vertex 10.5 13.5 15
    endloop
  endfacet
  facet normal -0.57735 0.57735 -0.57735
    outer loop
      vertex 12 15 15
      vertex 0 13.5 25.5
      vertex 0 15 27
    endloop
  endfacet
  facet normal -0.57735 0.57735 0.57735
    outer loop
      vertex 12 0 3
      vertex 13.5 -10.5 15
      vertex 13.5 0 4.5
    endloop
  endfacet
  facet normal -0.57735 0.57735 0.57735
    outer loop
      vertex 13.5 -10.5 15
      vertex 12 0 3
      vertex 12 -12 15
    endloop
  endfacet
  facet normal 0 -1 0
    outer loop
      vertex 0 12 27
      vertex 12 12 18
      vertex 3 12 27
    endloop
  endfacet
  facet normal -0 -1 -0
    outer loop
      vertex 12 12 18
      vertex 0 12 27
      vertex 12 12 15
    endloop
  endfacet
  facet normal 0.57735 -0.57735 -0.57735
    outer loop
      vertex -12 0 0
      vertex 0 10.5 1.5
      vertex -10.5 0 1.5
    endloop
  endfacet
  facet normal 0.57735 -0.57735 -0.57735
    outer loop
      vertex 0 10.5 1.5
      vertex -12 0 0
      vertex 0 12 0
    endloop
  endfacet
  facet normal 0.57735 -0.57735 -0.57735
    outer loop
      vertex -12 -12 12
      vertex -13.5 -3 1.5
      vertex -12 -3 3
    endloop
  endfacet
  facet normal 0.57735 -0.57735 -0.57735
    outer loop
      vertex -13.5 -3 1.5
      vertex -12 -12 12
      vertex -13.5 -13.5 12
    endloop
  endfacet
  facet normal 0 -1 0
    outer loop
      vertex -3 12 3
      vertex -12 12 15
      vertex -12 12 12
    endloop
  endfacet
  facet normal 0 -1 0
    outer loop
      vertex -12 12 15
      vertex -3 12 3
      vertex 0 12 3
    endloop
  endfacet
  facet normal -0.57735 -0.57735 -0.57735
    outer loop
      vertex -3 12 3
      vertex -13.5 13.5 12
      vertex -3 13.5 1.5
    endloop
  endfacet
  facet normal -0.57735 -0.57735 -0.57735
    outer loop
      vertex -13.5 13.5 12
      vertex -3 12 3
      vertex -12 12 12
    endloop
  endfacet
  facet normal 0.57735 -0.57735 0.57735
    outer loop
      vertex -12 0 3
      vertex 0 10.5 1.5
      vertex 0 12 3
    endloop
  endfacet
  facet normal 0.57735 -0.57735 0.57735
    outer loop
      vertex 0 10.5 1.5
      vertex -12 0 3
      vertex -10.5 0 1.5
    endloop
  endfacet
  facet normal 0.57735 -0.57735 0.57735
    outer loop
      vertex -12 12 15
      vertex 0 13.5 4.5
      vertex -10.5 13.5 15
    endloop
  endfacet
  facet normal 0.57735 -0.57735 0.57735
    outer loop
      vertex 0 13.5 4.5
      vertex -12 12 15
      vertex 0 12 3
    endloop
  endfacet
  facet normal -0.57735 0.57735 -0.57735
    outer loop
      vertex 13.5 3 1.5
      vertex 12 12 12
      vertex 13.5 13.5 12
    endloop
  endfacet
  facet normal -0.57735 0.57735 -0.57735
    outer loop
      vertex 12 12 12
      vertex 13.5 3 1.5
      vertex 12 3 3
    endloop
  endfacet
  facet normal 0.57735 -0.57735 0.57735
    outer loop
      vertex 13.5 0 4.5
      vertex 15 12 15
      vertex 13.5 10.5 15
    endloop
  endfacet
  facet normal 0.57735 -0.57735 0.57735
    outer loop
      vertex 15 12 15
      vertex 13.5 0 4.5
      vertex 15 0 3
    endloop
  endfacet
  facet normal -0.57735 0.57735 0.57735
    outer loop
      vertex 0 13.5 4.5
      vertex 12 15 15
      vertex 0 15 3
    endloop
  endfacet
  facet normal -0.57735 0.57735 0.57735
    outer loop
      vertex 12 15 15
      vertex 0 13.5 4.5
      vertex 10.5 13.5 15
    endloop
  endfacet
  facet normal -0.57735 -0.57735 0.57735
    outer loop
      vertex 12 12 15
      vertex 0 13.5 4.5
      vertex 0 12 3
    endloop
  endfacet
  facet normal -0.57735 -0.57735 0.57735
    outer loop
      vertex 0 13.5 4.5
      vertex 12 12 15
      vertex 10.5 13.5 15
    endloop
  endfacet
  facet normal -0.57735 -0.57735 0.57735
    outer loop
      vertex 12 0 3
      vertex 13.5 10.5 15
      vertex 12 12 15
    endloop
  endfacet
  facet normal -0.57735 -0.57735 0.57735
    outer loop
      vertex 13.5 10.5 15
      vertex 12 0 3
      vertex 13.5 0 4.5
    endloop
  endfacet
  facet normal -1 0 0
    outer loop
      vertex 12 3 3
      vertex 12 12 15
      vertex 12 12 12
    endloop
  endfacet
  facet normal -1 0 0
    outer loop
      vertex 12 12 15
      vertex 12 3 3
      vertex 12 0 3
    endloop
  endfacet
  facet normal 0.57735 -0.57735 -0.57735
    outer loop
      vertex 3 12 3
      vertex 13.5 13.5 12
      vertex 12 12 12
    endloop
  endfacet
  facet normal 0.57735 -0.57735 -0.57735
    outer loop
      vertex 13.5 13.5 12
      vertex 3 12 3
      vertex 3 13.5 1.5
    endloop
  endfacet
  facet normal 0 -1 0
    outer loop
      vertex 0 12 3
      vertex 12 12 12
      vertex 12 12 15
    endloop
  endfacet
  facet normal 0 -1 0
    outer loop
      vertex 12 12 12
      vertex 0 12 3
      vertex 3 12 3
    endloop
  endfacet
  facet normal 0 0 -1
    outer loop
      vertex -12 0 27
      vertex -3 12 27
      vertex 0 12 27
    endloop
  endfacet
  facet normal 0 0 -1
    outer loop
      vertex -3 12 27
      vertex -12 0 27
      vertex -12 3 27
    endloop
  endfacet
  facet normal 0.57735 -0.57735 -0.57735
    outer loop
      vertex -12 0 27
      vertex 0 10.5 28.5
      vertex -10.5 0 28.5
    endloop
  endfacet
  facet normal 0.57735 -0.57735 -0.57735
    outer loop
      vertex 0 10.5 28.5
      vertex -12 0 27
      vertex 0 12 27
    endloop
  endfacet
  facet normal -0.57735 0.57735 0.57735
    outer loop
      vertex -13.5 3 1.5
      vertex -3 12 3
      vertex -3 13.5 1.5
    endloop
  endfacet
  facet normal -0.57735 0.57735 0.57735
    outer loop
      vertex -3 12 3
      vertex -13.5 3 1.5
      vertex -12 3 3
    endloop
  endfacet
  facet normal -0.57735 0.57735 0.57735
    outer loop
      vertex -15 0 3
      vertex -13.5 -10.5 15
      vertex -13.5 0 4.5
    endloop
  endfacet
  facet normal -0.57735 0.57735 0.57735
    outer loop
      vertex -13.5 -10.5 15
      vertex -15 0 3
      vertex -15 -12 15
    endloop
  endfacet
  facet normal 0 0 1
    outer loop
      vertex -12 3 3
      vertex 0 12 3
      vertex -3 12 3
    endloop
  endfacet
  facet normal 0 0 1
    outer loop
      vertex 0 12 3
      vertex -12 3 3
      vertex -12 0 3
    endloop
  endfacet
  facet normal 0.57735 0.57735 0.57735
    outer loop
      vertex -13.5 -10.5 15
      vertex -12 0 3
      vertex -13.5 0 4.5
    endloop
  endfacet
  facet normal 0.57735 0.57735 0.57735
    outer loop
      vertex -12 0 3
      vertex -13.5 -10.5 15
      vertex -12 -12 15
    endloop
  endfacet
  facet normal 1 0 0
    outer loop
      vertex -12 -12 15
      vertex -12 -3 3
      vertex -12 0 3
    endloop
  endfacet
  facet normal 1 0 0
    outer loop
      vertex -12 -3 3
      vertex -12 -12 15
      vertex -12 -12 12
    endloop
  endfacet
  facet normal 0 1 0
    outer loop
      vertex 3 -12 3
      vertex 12 -12 15
      vertex 12 -12 12
    endloop
  endfacet
  facet normal 0 1 0
    outer loop
      vertex 12 -12 15
      vertex 3 -12 3
      vertex 0 -12 3
    endloop
  endfacet
  facet normal 0.57735 0.57735 -0.57735
    outer loop
      vertex 13.5 -13.5 12
      vertex 3 -12 3
      vertex 12 -12 12
    endloop
  endfacet
  facet normal 0.57735 0.57735 -0.57735
    outer loop
      vertex 3 -12 3
      vertex 13.5 -13.5 12
      vertex 3 -13.5 1.5
    endloop
  endfacet
  facet normal -0.57735 0.57735 0.57735
    outer loop
      vertex 0 -13.5 4.5
      vertex 12 -12 15
      vertex 0 -12 3
    endloop
  endfacet
  facet normal -0.57735 0.57735 0.57735
    outer loop
      vertex 12 -12 15
      vertex 0 -13.5 4.5
      vertex 10.5 -13.5 15
    endloop
  endfacet
  facet normal -0.57735 -0.57735 0.57735
    outer loop
      vertex 12 -15 15
      vertex 0 -13.5 4.5
      vertex 0 -15 3
    endloop
  endfacet
  facet normal -0.57735 -0.57735 0.57735
    outer loop
      vertex 0 -13.5 4.5
      vertex 12 -15 15
      vertex 10.5 -13.5 15
    endloop
  endfacet
  facet normal 0.57735 0.57735 -0.57735
    outer loop
      vertex 0 13.5 25.5
      vertex -12 15 15
      vertex 0 15 27
    endloop
  endfacet
  facet normal 0.57735 0.57735 -0.57735
    outer loop
      vertex -12 15 15
      vertex 0 13.5 25.5
      vertex -10.5 13.5 15
    endloop
  endfacet
  facet normal 0.57735 0.57735 -0.57735
    outer loop
      vertex 13.5 3 28.5
      vertex 3 12 27
      vertex 3 13.5 28.5
    endloop
  endfacet
  facet normal 0.57735 0.57735 -0.57735
    outer loop
      vertex 3 12 27
      vertex 13.5 3 28.5
      vertex 12 3 27
    endloop
  endfacet
  facet normal 0.57735 -0.57735 -0.57735
    outer loop
      vertex -12 12 15
      vertex 0 13.5 25.5
      vertex 0 12 27
    endloop
  endfacet
  facet normal 0.57735 -0.57735 -0.57735
    outer loop
      vertex 0 13.5 25.5
      vertex -12 12 15
      vertex -10.5 13.5 15
    endloop
  endfacet
  facet normal 0 -1 0
    outer loop
      vertex -12 12 18
      vertex 0 12 27
      vertex -3 12 27
    endloop
  endfacet
  facet normal 0 -1 0
    outer loop
      vertex 0 12 27
      vertex -12 12 18
      vertex -12 12 15
    endloop
  endfacet
  facet normal -0.57735 -0.57735 0.57735
    outer loop
      vertex 12 0 30
      vertex 0 10.5 28.5
      vertex 10.5 0 28.5
    endloop
  endfacet
  facet normal -0.57735 -0.57735 0.57735
    outer loop
      vertex 0 10.5 28.5
      vertex 12 0 30
      vertex 0 12 30
    endloop
  endfacet
  facet normal -0.57735 -0.57735 0.57735
    outer loop
      vertex -3 12 27
      vertex -13.5 13.5 18
      vertex -12 12 18
    endloop
  endfacet
  facet normal -0.57735 -0.57735 0.57735
    outer loop
      vertex -13.5 13.5 18
      vertex -3 12 27
      vertex -3 13.5 28.5
    endloop
  endfacet
  facet normal 0 0 -1
    outer loop
      vertex 3 -12 27
      vertex 12 0 27
      vertex 12 -3 27
    endloop
  endfacet
  facet normal 0 0 -1
    outer loop
      vertex 12 0 27
      vertex 3 -12 27
      vertex 0 -12 27
    endloop
  endfacet
  facet normal 0 0 -1
    outer loop
      vertex 12 0 27
      vertex 3 12 27
      vertex 12 3 27
    endloop
  endfacet
  facet normal -0 -0 -1
    outer loop
      vertex 3 12 27
      vertex 12 0 27
      vertex 0 12 27
    endloop
  endfacet
  facet normal 0 0 -1
    outer loop
      vertex -12 -3 27
      vertex 0 -12 27
      vertex -3 -12 27
    endloop
  endfacet
  facet normal 0 0 -1
    outer loop
      vertex 0 -12 27
      vertex -12 -3 27
      vertex -12 0 27
    endloop
  endfacet
  facet normal -0.57735 -0.57735 -0.57735
    outer loop
      vertex -3 -12 27
      vertex -13.5 -3 28.5
      vertex -12 -3 27
    endloop
  endfacet
  facet normal -0.57735 -0.57735 -0.57735
    outer loop
      vertex -13.5 -3 28.5
      vertex -3 -12 27
      vertex -3 -13.5 28.5
    endloop
  endfacet
  facet normal 0.57735 0.57735 0.57735
    outer loop
      vertex -12 0 30
      vertex 0 -10.5 28.5
      vertex -10.5 0 28.5
    endloop
  endfacet
  facet normal 0.57735 0.57735 0.57735
    outer loop
      vertex 0 -10.5 28.5
      vertex -12 0 30
      vertex 0 -12 30
    endloop
  endfacet
  facet normal 0.57735 -0.57735 -0.57735
    outer loop
      vertex 13.5 -3 28.5
      vertex 3 -12 27
      vertex 12 -3 27
    endloop
  endfacet
  facet normal 0.57735 -0.57735 -0.57735
    outer loop
      vertex 3 -12 27
      vertex 13.5 -3 28.5
      vertex 3 -13.5 28.5
    endloop
  endfacet
  facet normal 0.57735 0.57735 -0.57735
    outer loop
      vertex 0 -10.5 28.5
      vertex -12 0 27
      vertex -10.5 0 28.5
    endloop
  endfacet
  facet normal 0.57735 0.57735 -0.57735
    outer loop
      vertex -12 0 27
      vertex 0 -10.5 28.5
      vertex 0 -12 27
    endloop
  endfacet
  facet normal -0.57735 0.57735 0.57735
    outer loop
      vertex 0 -10.5 28.5
      vertex 12 0 30
      vertex 10.5 0 28.5
    endloop
  endfacet
  facet normal -0.57735 0.57735 0.57735
    outer loop
      vertex 12 0 30
      vertex 0 -10.5 28.5
      vertex 0 -12 30
    endloop
  endfacet
  facet normal -0.57735 0.57735 -0.57735
    outer loop
      vertex 12 0 27
      vertex 0 -10.5 28.5
      vertex 10.5 0 28.5
    endloop
  endfacet
  facet normal -0.57735 0.57735 -0.57735
    outer loop
      vertex 0 -10.5 28.5
      vertex 12 0 27
      vertex 0 -12 27
    endloop
  endfacet
  facet normal -0.57735 -0.57735 -0.57735
    outer loop
      vertex 12 0 27
      vertex 0 10.5 28.5
      vertex 0 12 27
    endloop
  endfacet
  facet normal -0.57735 -0.57735 -0.57735
    outer loop
      vertex 0 10.5 28.5
      vertex 12 0 27
      vertex 10.5 0 28.5
    endloop
  endfacet
endsolid OpenSCAD_Model
